Coordinates
version=1
nRows=49
nColumns=12
inDegrees=yes

Units are S.I. units (second, meters, Newtons, ...)
Angles are in degrees

endheader
time	SC_y	SC_z	SC_x	AC_y	AC_z	AC_x	GH_y	GH_z	GH_yy	EL_x	PS_y
       0.0              -51.44          14.94          47.53          55.69         -16.24         -3.037         -3.569          7.643         -26.97          96.75           25.5
   0.02802              -51.44          14.94          47.53          55.69         -16.24         -3.037         -3.555          7.643         -26.98          96.74          25.51
   0.05605              -51.44          14.94          47.53           55.7         -16.24         -3.036          -3.54          7.644         -26.99          96.73          25.53
   0.08407              -51.44          14.94          47.53           55.7         -16.24         -3.036         -3.524          7.644         -27.01          96.72          25.54
    0.1121              -51.44          14.94          47.53           55.7         -16.24         -3.036         -3.507          7.644         -27.02          96.71          25.55
    0.1401              -51.44          14.94          47.54           55.7         -16.23         -3.036         -3.489          7.645         -27.04          96.69          25.57
    0.1681              -51.44          14.94          47.54           55.7         -16.23         -3.036          -3.47          7.645         -27.06          96.68          25.58
    0.1962              -51.45          14.94          47.54          55.71         -16.23         -3.036          -3.45          7.645         -27.07          96.67           25.6
    0.2242              -51.45          14.94          47.54          55.71         -16.23         -3.036         -3.428          7.646         -27.09          96.65          25.62
    0.2522              -51.45          14.94          47.54          55.71         -16.23         -3.035         -3.404          7.646         -27.11          96.63          25.64
    0.2802              -51.45          14.95          47.54          55.71         -16.23         -3.035         -3.379          7.647         -27.14          96.62          25.66
    0.3083              -51.45          14.95          47.54          55.72         -16.23         -3.035         -3.352          7.647         -27.16           96.6          25.69
    0.3363              -51.45          14.95          47.54          55.72         -16.22         -3.035         -3.322          7.648         -27.19          96.58          25.71
    0.3643              -51.45          14.95          47.54          55.73         -16.22         -3.034         -3.291          7.649         -27.22          96.55          25.74
    0.3923              -51.46          14.95          47.54          55.73         -16.22         -3.034         -3.256          7.649         -27.25          96.53          25.77
    0.4204              -51.46          14.95          47.54          55.73         -16.22         -3.034         -3.219           7.65         -27.28           96.5           25.8
    0.4484              -51.46          14.95          47.55          55.74         -16.22         -3.034         -3.179          7.651         -27.32          96.47          25.83
    0.4764              -51.46          14.95          47.55          55.74         -16.21         -3.033         -3.135          7.652         -27.35          96.44          25.87
    0.5044              -51.47          14.95          47.55          55.75         -16.21         -3.033         -3.087          7.653          -27.4          96.41          25.91
    0.5325              -51.47          14.95          47.55          55.76         -16.21         -3.032         -3.034          7.654         -27.44          96.37          25.95
    0.5605              -51.47          14.95          47.55          55.76          -16.2         -3.032         -2.976          7.655          -27.5          96.33           26.0
    0.5885              -51.48          14.95          47.56          55.77          -16.2         -3.031         -2.913          7.656         -27.55          96.29          26.06
    0.6165              -51.48          14.96          47.56          55.78          -16.2         -3.031         -2.843          7.658         -27.62          96.24          26.12
    0.6446              -51.48          14.96          47.56          55.79         -16.19          -3.03         -2.765          7.659         -27.68          96.18          26.18
    0.6726              -51.49          14.96          47.56           55.8         -16.19          -3.03         -2.678          7.661         -27.76          96.12          26.25
    0.7006              -51.49          14.96          47.57          55.81         -16.18         -3.029         -2.582          7.663         -27.85          96.05          26.34
    0.7286               -51.5          14.96          47.57          55.82         -16.17         -3.028         -2.474          7.665         -27.94          95.97          26.43
    0.7567              -51.51          14.97          47.57          55.84         -16.17         -3.027         -2.352          7.668         -28.05          95.89          26.53
    0.7847              -51.51          14.97          47.58          55.85         -16.16         -3.026         -2.215           7.67         -28.18          95.79          26.65
    0.8127              -51.52          14.97          47.58          55.87         -16.15         -3.025         -2.059          7.673         -28.31          95.68          26.78
    0.8407              -51.53          14.97          47.59          55.89         -16.14         -3.023         -1.881          7.677         -28.47          95.55          26.93
    0.8688              -51.54          14.98           47.6          55.92         -16.13         -3.022         -1.677          7.681         -28.66          95.41           27.1
    0.8968              -51.56          14.98          47.61          55.95         -16.11          -3.02         -1.441          7.686         -28.87          95.24           27.3
    0.9248              -51.57          14.99          47.62          55.98          -16.1         -3.018         -1.166          7.692         -29.11          95.05          27.53
    0.9528              -51.59          14.99          47.63          56.02         -16.08         -3.015        -0.8458          7.698          -29.4          94.82           27.8
    0.9809              -51.61           15.0          47.64          56.06         -16.06         -3.012        -0.4677          7.706         -29.73          94.55          28.12
     1.009              -51.64          15.01          47.66          56.12         -16.03         -3.008       -0.01833          7.715         -30.14          94.23           28.5
     1.037              -51.67          15.02          47.67          56.18          -16.0         -3.004         0.5203          7.726         -30.62          93.85          28.96
     1.065               -51.7          15.03           47.7          56.26         -15.96         -2.999          1.172          7.739          -31.2          93.39          29.51
     1.093              -51.75          15.05          47.72          56.35         -15.91         -2.993          1.968          7.755         -31.91          92.82          30.18
     1.121               -51.8          15.07          47.76          56.47         -15.85         -2.985           2.95          7.775         -32.78          92.12          31.01
     1.149              -51.87          15.09           47.8          56.62         -15.78         -2.975          4.175            7.8         -33.88          91.25          32.05
     1.177              -51.95          15.12          47.85           56.8         -15.69         -2.963          5.719          7.831         -35.25          90.16          33.35
     1.205              -52.06          15.16          47.92          57.04         -15.57         -2.947           7.68           7.87          -37.0          88.77          35.01
     1.233               -52.2          15.21          48.01          57.34         -15.43         -2.927          10.19          7.921         -39.24          86.99          37.14
     1.261              -52.38          15.27          48.12          57.72         -15.24         -2.901          13.41          7.986         -42.12           84.7          39.86
     1.289              -52.61          15.36          48.26          58.22         -14.99         -2.869          17.53           8.07         -45.79          81.78          43.34
     1.317              -52.89          15.46          48.44          58.83         -14.69         -2.827          22.71          8.174         -50.41           78.1          47.72
     1.345              -53.24          15.58          48.65          59.59         -14.32         -2.777          29.01          8.302         -56.04          73.63          53.05
